<svg width="520" height="360" viewBox="0 0 520 360" fill="none" xmlns="http://www.w3.org/2000/svg">
  <defs>
    <linearGradient id="baseGradient" x1="80" y1="60" x2="420" y2="300" gradientUnits="userSpaceOnUse">
      <stop offset="0" stop-color="#F5FFF9" />
      <stop offset="1" stop-color="#E2F8EC" />
    </linearGradient>
    <linearGradient id="accentGradient" x1="160" y1="80" x2="340" y2="260" gradientUnits="userSpaceOnUse">
      <stop offset="0" stop-color="#2EB872" />
      <stop offset="1" stop-color="#8FF0C3" />
    </linearGradient>
    <linearGradient id="solarPanel" x1="0" y1="0" x2="1" y2="1">
      <stop offset="0" stop-color="#FFFFFF" stop-opacity="0.92" />
      <stop offset="1" stop-color="#DDF7EB" stop-opacity="0.85" />
    </linearGradient>
    <linearGradient id="tower" x1="0" y1="0" x2="0" y2="1">
      <stop offset="0" stop-color="#B9F0D0" />
      <stop offset="1" stop-color="#7CD99E" />
    </linearGradient>
    <linearGradient id="battery" x1="0" y1="0" x2="1" y2="1">
      <stop offset="0" stop-color="#1C8F55" />
      <stop offset="1" stop-color="#2EB872" />
    </linearGradient>
  </defs>

  <rect x="48" y="52" width="424" height="256" rx="52" fill="url(#baseGradient)" />
  <path d="M80 276c24-32 88-54 180-54s160 22 180 54" stroke="#8FF0C3" stroke-width="4" stroke-linecap="round" />

  <circle cx="140" cy="128" r="44" fill="#FFF7DE" />
  <g opacity="0.35" stroke="#F2B441" stroke-width="4" stroke-linecap="round">
    <path d="M140 84v18" />
    <path d="M140 172v18" />
    <path d="M180 128h18" />
    <path d="M82 128H64" />
    <path d="M168 100l14-12" />
    <path d="M98 188l-14 12" />
    <path d="M168 156l14 12" />
    <path d="M98 68L84 56" />
  </g>

  <path d="M120 210h196l-22 70H144l-24-70z" fill="#EBFBF3" stroke="#9DE8C2" stroke-width="3" stroke-linejoin="round" />
  <path d="M138 210l-18 70M170 210l-12 70M202 210l-6 70M234 210v70M266 210l6 70M298 210l12 70" stroke="#9DE8C2" stroke-width="3" stroke-linecap="round" />
  <rect x="150" y="220" width="160" height="44" rx="6" fill="url(#solarPanel)" />
  <path d="M150 236h160" stroke="#CDF3E1" stroke-width="2" />

  <g transform="translate(296 146)">
    <path d="M0 0h120l22 46H0V0z" fill="#FFFFFF" stroke="#A2ECCB" stroke-width="3" stroke-linejoin="round" />
    <rect x="14" y="10" width="24" height="24" rx="4" fill="#DDF7EB" />
    <rect x="48" y="10" width="24" height="24" rx="4" fill="#DDF7EB" />
    <rect x="82" y="10" width="24" height="24" rx="4" fill="#DDF7EB" />
    <path d="M10 42h104" stroke="#A2ECCB" stroke-width="2" stroke-linecap="round" />
  </g>

  <g transform="translate(94 146)">
    <path d="M0 44h80l-12 32H12L0 44z" fill="#FFFFFF" fill-opacity="0.8" stroke="#B7F1D4" stroke-width="3" stroke-linejoin="round" />
    <path d="M12 44l-9 32M28 44l-6 32M44 44l-3 32M60 44v32M76 44l3 32" stroke="#B7F1D4" stroke-width="2" />
  </g>

  <g transform="translate(330 220)">
    <rect x="0" y="-8" width="72" height="56" rx="12" fill="#FFFFFF" stroke="#9DE8C2" stroke-width="3" />
    <path d="M56 -8V-24" stroke="#2EB872" stroke-width="4" stroke-linecap="round" />
    <path d="M14 8h44" stroke="#CDF3E1" stroke-width="2" stroke-linecap="round" />
    <circle cx="24" cy="30" r="9" fill="#2EB872" />
    <circle cx="46" cy="30" r="9" fill="#2EB872" />
    <path d="M10 18h52" stroke="#8FF0C3" stroke-width="3" stroke-linecap="round" />
  </g>

  <g transform="translate(248 98)">
    <rect x="0" y="0" width="40" height="70" rx="10" fill="url(#tower)" />
    <rect x="10" y="12" width="20" height="14" rx="3" fill="#FFFFFF" opacity="0.75" />
    <rect x="10" y="34" width="20" height="14" rx="3" fill="#FFFFFF" opacity="0.65" />
    <circle cx="20" cy="60" r="6" fill="#FFFFFF" opacity="0.7" />
  </g>

  <g transform="translate(210 120)">
    <rect x="0" y="0" width="56" height="30" rx="8" fill="url(#battery)" />
    <path d="M50 10h8v10h-8z" fill="#1C8F55" />
    <path d="M16 9h24l-8 12h8l-20 18 4-12h-8z" fill="#FFFFFF" />
  </g>

  <g transform="translate(116 94)">
    <path d="M0 32c8-8 20-14 34-14 14 0 26 6 34 14" stroke="#2EB872" stroke-width="4" stroke-linecap="round" />
    <path d="M14 24l6-16 10 26 8-10 8 16" stroke="#2EB872" stroke-width="4" stroke-linecap="round" stroke-linejoin="round" />
  </g>

  <g transform="translate(372 116)">
    <path d="M0 56c14-16 38-16 52 0" stroke="#2EB872" stroke-width="6" stroke-linecap="round" />
    <circle cx="26" cy="56" r="20" fill="#FFFFFF" stroke="#2EB872" stroke-width="4" />
    <path d="M26 42v16l9 9" stroke="#2EB872" stroke-width="4" stroke-linecap="round" stroke-linejoin="round" />
  </g>

  <path d="M80 284c32 36 124 60 212 60s172-24 212-60" stroke="#DAF6E7" stroke-width="4" stroke-linecap="round" opacity="0.6" />
</svg>
