<svg width="520" height="320" viewBox="0 0 520 320" fill="none" xmlns="http://www.w3.org/2000/svg" role="img" aria-labelledby="title desc">
  <title id="title">Light isometric clean‑energy scene</title>
  <desc id="desc">Simple isometric solar panels, battery block and EV with flat fills in RenewG greens.</desc>

  <!-- Colors: primary #2EB872, dark #1C8F55, mint #A8F2C7, mist #EAF7F0 -->

  <!-- Sun -->
  <circle cx="140" cy="92" r="30" fill="#FFF3D6" />

  <!-- Ground hint -->
  <path d="M84 268c40 22 120 30 176 28 56-2 156-10 228-34" stroke="#D6F4E8" stroke-width="4" stroke-linecap="round" />

  <!-- Solar array (isometric tiles) -->
  <g transform="translate(120 168)">
    <polygon points="0,18 52,0 144,36 92,54" fill="#FFFFFF" stroke="#BDEFD6" stroke-width="3"/>
    <polygon points="10,16 44,4 80,18 46,30" fill="#2EB872"/>
    <polygon points="52,30 86,18 122,32 88,44" fill="#2EB872" opacity=".9"/>
    <polygon points="94,44 128,32 142,38 108,50" fill="#EAF7F0"/>
  </g>

  <!-- Building with roof panels -->
  <g transform="translate(248 120)">
    <polygon points="0,24 40,8 40,52 0,68" fill="#FFFFFF" stroke="#BDEFD6" stroke-width="3"/>
    <polygon points="40,8 88,24 88,68 40,52" fill="#FFFFFF" stroke="#BDEFD6" stroke-width="3"/>
    <polygon points="10,20 40,8 68,18 38,30" fill="#A8F2C7"/>
    <polygon points="44,20 72,30 58,36 30,26" fill="#EAF7F0"/>
  </g>

  <!-- Battery block -->
  <g transform="translate(212 198)">
    <polygon points="0,8 36,-6 36,22 0,36" fill="#FFFFFF" stroke="#BDEFD6" stroke-width="3"/>
    <polygon points="36,-6 66,6 66,34 36,22" fill="#FFFFFF" stroke="#BDEFD6" stroke-width="3"/>
    <rect x="10" y="8" width="18" height="6" rx="3" fill="#2EB872"/>
    <rect x="10" y="18" width="12" height="6" rx="3" fill="#A8F2C7"/>
  </g>

  <!-- EV capsule -->
  <g transform="translate(360 208)">
    <polygon points="0,0 48,-16 92,0 44,16" fill="#FFFFFF" stroke="#BDEFD6" stroke-width="3"/>
    <circle cx="26" cy="10" r="7" fill="#2EB872"/>
    <circle cx="64" cy="4" r="7" fill="#2EB872" opacity=".85"/>
    <polygon points="10,-2 50,-16 68,-8 28,6" fill="#A8F2C7"/>
  </g>
</svg>
