<svg width="480" height="320" viewBox="0 0 480 320" fill="none" xmlns="http://www.w3.org/2000/svg" role="img" aria-labelledby="title desc">
  <title id="title">Clean energy scene with sun, solar panels, battery and EV</title>
  <desc id="desc">Minimal geometric composition expressing solar generation, storage and e‑mobility using RenewG green palette.</desc>
  <defs>
    <linearGradient id="bg" x1="60" y1="40" x2="420" y2="280" gradientUnits="userSpaceOnUse">
      <stop offset="0" stop-color="#F6FFF9" />
      <stop offset="1" stop-color="#E6F7EE" />
    </linearGradient>
    <linearGradient id="accent" x1="0" y1="0" x2="1" y2="1">
      <stop offset="0" stop-color="#2EB872" />
      <stop offset="1" stop-color="#8DE4BC" />
    </linearGradient>
  </defs>

  <!-- soft card background -->
  <rect x="40" y="36" width="400" height="248" rx="42" fill="url(#bg)" />

  <!-- sun and subtle rays -->
  <circle cx="126" cy="108" r="34" fill="#FFF6D9" />
  <g stroke="#F2C35B" stroke-width="3" stroke-linecap="round" opacity=".45">
    <path d="M126 70v16M126 166v16M164 108h16M72 108H56" />
    <path d="M153 81l11-11M99 159l-11 11M153 135l11 11M99 57L88 46" />
  </g>

  <!-- solar array (three tiles) -->
  <g transform="translate(120 164)">
    <rect x="0" y="0" width="176" height="60" rx="16" fill="#FFFFFF" stroke="#BDEFD6" stroke-width="3" />
    <rect x="16" y="14" width="48" height="32" rx="8" fill="url(#accent)" />
    <rect x="72" y="14" width="48" height="32" rx="8" fill="url(#accent)" opacity=".9" />
    <rect x="128" y="14" width="32" height="32" rx="8" fill="#EAF7F0" />
  </g>

  <!-- battery pack -->
  <g transform="translate(220 112)">
    <rect x="0" y="0" width="96" height="54" rx="16" fill="#FFFFFF" stroke="#BDEFD6" stroke-width="3" />
    <rect x="12" y="14" width="44" height="10" rx="5" fill="#2EB872" />
    <rect x="12" y="28" width="28" height="10" rx="5" fill="#8DE4BC" />
    <rect x="72" y="18" width="8" height="18" rx="2" fill="#2EB872" />
  </g>

  <!-- EV capsule -->
  <g transform="translate(336 200)">
    <rect x="0" y="-12" width="96" height="48" rx="18" fill="#FFFFFF" stroke="#BDEFD6" stroke-width="3" />
    <circle cx="30" cy="24" r="8" fill="#2EB872" />
    <circle cx="66" cy="24" r="8" fill="#2EB872" opacity=".75" />
    <path d="M14 6h36l16 18H14z" fill="#8DE4BC" />
  </g>

  <!-- horizon line -->
  <path d="M76 262c34 22 130 34 180 32 50-2 156-10 208-32" stroke="#D6F4E8" stroke-width="4" stroke-linecap="round" />
</svg>
