<svg width="420" height="320" viewBox="0 0 420 320" fill="none" xmlns="http://www.w3.org/2000/svg">
  <defs>
    <linearGradient id="heroBase" x1="40" y1="40" x2="340" y2="280" gradientUnits="userSpaceOnUse">
      <stop offset="0" stop-color="#F5FFF9" />
      <stop offset="1" stop-color="#E3F7EB" />
    </linearGradient>
    <linearGradient id="heroAccent" x1="0" y1="0" x2="1" y2="1">
      <stop offset="0" stop-color="#2EB872" />
      <stop offset="1" stop-color="#8DE4BC" />
    </linearGradient>
  </defs>
  <rect x="28" y="40" width="364" height="224" rx="40" fill="url(#heroBase)" />
  <circle cx="120" cy="110" r="36" fill="#FFF6D9" />
  <path d="M80 240h260" stroke="#D4F3E5" stroke-width="4" stroke-linecap="round" />
  <g transform="translate(110 160)">
    <rect x="0" y="0" width="160" height="56" rx="16" fill="#FFFFFF" stroke="#B7EFD2" stroke-width="3" />
    <rect x="18" y="12" width="40" height="32" rx="8" fill="url(#heroAccent)" />
    <rect x="68" y="12" width="40" height="32" rx="8" fill="url(#heroAccent)" opacity="0.8" />
    <rect x="118" y="12" width="24" height="32" rx="8" fill="#E7F8F0" />
  </g>
  <g transform="translate(220 110)">
    <rect x="0" y="0" width="90" height="50" rx="16" fill="#FFFFFF" stroke="#B7EFD2" stroke-width="3" />
    <path d="M20 32l15-20 15 20" stroke="#2EB872" stroke-width="4" stroke-linecap="round" stroke-linejoin="round" />
    <path d="M60 18h12" stroke="#8DE4BC" stroke-width="3" stroke-linecap="round" />
  </g>
  <g transform="translate(94 220)">
    <rect x="0" y="0" width="234" height="40" rx="12" fill="#FFFFFF" stroke="#B7EFD2" stroke-width="2" />
    <path d="M24 12h66" stroke="#E0F5EB" stroke-width="2" stroke-linecap="round" />
    <path d="M24 24h66" stroke="#E0F5EB" stroke-width="2" stroke-linecap="round" />
    <circle cx="180" cy="20" r="10" fill="#2EB872" />
    <circle cx="210" cy="20" r="10" fill="#2EB872" opacity="0.65" />
  </g>
  <path d="M72 258c28 24 108 38 168 36 60-2 136-16 180-36" stroke="#DAF4E7" stroke-width="4" stroke-linecap="round" />
</svg>
