<svg width="520" height="320" viewBox="0 0 520 320" fill="none" xmlns="http://www.w3.org/2000/svg" role="img" aria-labelledby="title desc">
  <title id="title">Isometric clean‑energy scene</title>
  <desc id="desc">Isometric solar array, battery, building roof panels and EV styled in RenewG greens.</desc>

  <defs>
    <linearGradient id="bg" x1="70" y1="32" x2="450" y2="296" gradientUnits="userSpaceOnUse">
      <stop offset="0" stop-color="#F6FFF9" />
      <stop offset="1" stop-color="#E4F8EE" />
    </linearGradient>
    <linearGradient id="greenFace" x1="0" y1="0" x2="1" y2="1">
      <stop offset="0" stop-color="#2EB872" />
      <stop offset="1" stop-color="#8DE4BC" />
    </linearGradient>
    <linearGradient id="shade" x1="0" y1="0" x2="1" y2="1">
      <stop offset="0" stop-color="#EAF7F0" />
      <stop offset="1" stop-color="#D7F2E6" />
    </linearGradient>
  </defs>

  <!-- rounded card backdrop -->
  <rect x="48" y="28" width="424" height="264" rx="44" fill="url(#bg)" />

  <!-- sun -->
  <circle cx="150" cy="92" r="30" fill="#FFF3D6" />

  <!-- isometric ground shadow -->
  <path d="M84 268c40 22 120 30 176 28 56-2 156-10 228-34" stroke="#D6F4E8" stroke-width="4" stroke-linecap="round" />

  <!-- isometric solar array (3 tiles) -->
  <g transform="translate(120 168)">
    <!-- base slab -->
    <polygon points="0,18 52,0 144,36 92,54" fill="#FFFFFF" stroke="#BDEFD6" stroke-width="3"/>
    <!-- tile 1 -->
    <polygon points="10,16 44,4 80,18 46,30" fill="url(#greenFace)"/>
    <!-- tile 2 -->
    <polygon points="52,30 86,18 122,32 88,44" fill="url(#greenFace)" opacity=".9"/>
    <!-- tile 3 (light) -->
    <polygon points="94,44 128,32 142,38 108,50" fill="url(#shade)"/>
  </g>

  <!-- building with roof panels (iso) -->
  <g transform="translate(248 120)">
    <!-- walls -->
    <polygon points="0,24 40,8 40,52 0,68" fill="#FFFFFF" stroke="#BDEFD6" stroke-width="3"/>
    <polygon points="40,8 88,24 88,68 40,52" fill="#FFFFFF" stroke="#BDEFD6" stroke-width="3"/>
    <!-- roof panels -->
    <polygon points="10,20 40,8 68,18 38,30" fill="url(#greenFace)"/>
    <polygon points="44,20 72,30 58,36 30,26" fill="url(#shade)"/>
  </g>

  <!-- battery (iso block) -->
  <g transform="translate(212 198)">
    <polygon points="0,8 36,-6 36,22 0,36" fill="#FFFFFF" stroke="#BDEFD6" stroke-width="3"/>
    <polygon points="36,-6 66,6 66,34 36,22" fill="#FFFFFF" stroke="#BDEFD6" stroke-width="3"/>
    <rect x="10" y="8" width="18" height="6" rx="3" fill="#2EB872"/>
    <rect x="10" y="18" width="12" height="6" rx="3" fill="#8DE4BC"/>
  </g>

  <!-- EV (iso capsule) -->
  <g transform="translate(360 208)">
    <polygon points="0,0 48,-16 92,0 44,16" fill="#FFFFFF" stroke="#BDEFD6" stroke-width="3"/>
    <circle cx="26" cy="10" r="7" fill="#2EB872"/>
    <circle cx="64" cy="4" r="7" fill="#2EB872" opacity=".8"/>
    <polygon points="10,-2 50,-16 68,-8 28,6" fill="#8DE4BC"/>
  </g>
</svg>
