<svg width="520" height="320" viewBox="0 0 520 320" fill="none" xmlns="http://www.w3.org/2000/svg" role="img" aria-labelledby="title desc">
  <title id="title">Ultra‑flat outline clean‑energy scene</title>
  <desc id="desc">Outline-only sun, solar panel grid, battery and EV using RenewG green strokes.</desc>

  <!-- palette: dark green #1C8F55, primary green #2EB872 -->
  <g stroke="#1C8F55" stroke-width="3" stroke-linecap="round" stroke-linejoin="round" fill="none">
    <!-- Sun with rays -->
    <circle cx="130" cy="90" r="28" />
    <path d="M130 54v14M130 112v14M166 90h14M80 90H66M154 66l10-10M96 134l-10 10M154 114l10 10M96 46L86 36" />

    <!-- Solar panel rectangle with grid -->
    <rect x="110" y="160" width="200" height="90" rx="10" />
    <path d="M110 190h200M110 220h200M176 160v90M242 160v90M308 160v90" />

    <!-- Battery with terminal and bolt -->
    <rect x="240" y="110" width="120" height="50" rx="12" />
    <rect x="354" y="124" width="10" height="22" rx="2" />
    <path d="M274 122l18 0-16 16h16l-28 22 8-20h-14z" />

    <!-- EV capsule outline with wheels -->
    <rect x="360" y="188" width="120" height="46" rx="18" />
    <circle cx="392" cy="234" r="8" />
    <circle cx="446" cy="234" r="8" />
    <path d="M372 206h44l24 12h-68z" />
    <!-- charging cable -->
    <path d="M480 196c10 4 14 10 14 18" />
  </g>
</svg>
