<svg width="24" height="24" viewBox="0 0 24 24" fill="none" xmlns="http://www.w3.org/2000/svg">
  <path d="M12 2.25c-4.97 0-9 3.88-9 8.66 0 1.62.49 3.17 1.41 4.5L3 21.75l6.54-2.05c.78.22 1.58.33 2.46.33 4.97 0 9-3.88 9-8.66 0-4.78-4.03-8.66-9-8.66z" stroke="#1C8F55" stroke-width="1.4" stroke-linejoin="round" />
  <path d="M9.9 7.81l-.18.07c-.36.14-.71.51-.68.93.03.42.13 1.32 1.04 2.25.91.94 2.37 1.72 2.79 1.91.41.2.75.17 1 .1.24-.07.64-.27.76-.54.12-.27.12-.5.08-.55-.03-.05-.12-.08-.25-.15s-.78-.38-.9-.42c-.12-.04-.2-.07-.28.07-.08.14-.32.42-.4.51-.07.09-.15.1-.27.04-.12-.06-.52-.2-.99-.63-.37-.33-.62-.74-.7-.86-.07-.12-.01-.18.05-.24.05-.05.12-.14.18-.21.05-.07.08-.12.12-.2.04-.08.02-.15 0-.21-.02-.06-.21-.51-.3-.7-.08-.19-.16-.16-.23-.16-.06 0-.14 0-.21.01z" fill="#1C8F55" />
</svg>
